<svg width="1024" height="1024" viewBox="0 0 1024 1024" fill="none" xmlns="http://www.w3.org/2000/svg">
<path d="M895.363 434.76C880.118 398.862 854.792 368.399 822.863 346.836C806.976 336.119 789.396 327.595 770.529 321.782C751.788 315.843 731.762 312.742 711.091 312.742C684.59 312.742 659.134 317.912 635.877 327.344C633.933 328.111 632.129 328.881 630.325 329.789C609.388 338.956 590.258 351.868 573.852 367.237C568.552 372.269 563.516 377.564 558.468 383.503C549.559 393.704 540.384 405.456 531.463 417.333C529.657 419.777 527.714 422.363 525.91 424.823C521.001 431.531 474.081 500.225 465.815 512.493C461.676 518.683 456.767 525.656 451.466 533.273C450.305 534.951 449.019 536.766 447.731 538.568C438.936 551.091 429.117 564.266 420.069 575.892C415.551 581.692 411.021 587.114 407.146 591.64C403.147 596.281 399.525 600.026 396.937 602.483C385.832 612.936 372.771 621.461 358.435 627.274C344.088 633.087 328.451 636.314 311.906 636.314C300.536 636.314 289.556 634.761 279.222 631.925C273.922 630.501 268.748 628.697 263.712 626.503C241.477 617.198 222.484 601.45 209.171 581.691C202.457 571.755 197.156 560.911 193.535 549.285C190.051 537.659 187.983 525.404 187.983 512.492C187.983 495.318 191.479 479.178 197.674 464.323C207.114 442.12 222.875 423.27 242.651 409.84C252.594 403.12 263.446 397.962 275.082 394.343C286.705 390.724 298.983 388.671 311.906 388.671C328.451 388.795 344.088 391.898 358.435 397.699C372.772 403.636 385.832 412.034 396.937 422.487C399.525 424.946 403.147 428.816 407.146 433.343C414.125 441.476 422.391 451.929 430.67 462.912C433.9 467.3 437.131 471.688 440.361 476.202C452.766 458.133 474.471 426.37 485.841 409.965C483.911 407.38 481.968 404.809 480.036 402.223C474.861 395.628 469.688 389.311 464.528 383.498C459.353 377.559 454.443 372.264 449.144 367.232C431.313 350.436 410.252 336.757 387.118 327.338C363.86 317.906 338.395 312.735 311.906 312.735C284.383 312.735 258.02 318.296 233.993 328.496C198.066 343.602 167.69 368.909 146.109 400.797C135.383 416.685 126.864 434.363 120.92 453.088C115.104 471.943 112 491.828 112 512.495C112 539.995 117.552 566.335 127.637 590.217C142.88 626.242 168.208 656.592 199.998 678.153C216.024 688.872 233.604 697.382 252.47 703.321C271.209 709.134 291.237 712.235 311.908 712.235C338.396 712.235 363.863 707.065 387.12 697.647C410.253 688.215 431.188 674.533 449.02 657.877L449.145 657.751C454.446 652.845 459.356 647.411 464.529 641.472C473.438 631.272 482.613 619.532 491.534 607.654C493.34 605.195 495.283 602.736 497.087 600.289C501.996 593.443 566.23 499.316 571.519 491.701C572.692 490.023 573.98 488.22 575.265 486.405C584.062 474.009 593.88 460.709 602.928 449.096C607.446 443.283 611.976 437.86 615.851 433.346C619.852 428.693 623.474 424.948 626.06 422.49C637.165 412.037 650.226 403.639 664.563 397.702C668.059 396.289 671.542 395.13 675.162 393.956C686.532 390.604 698.546 388.8 711.091 388.674C728.277 388.798 744.558 392.154 759.284 398.483C781.507 407.776 800.513 423.524 813.814 443.283C820.54 453.231 825.839 464.076 829.449 475.687C833.071 487.313 835.014 499.581 835.014 512.493C835.014 529.667 831.518 545.933 825.323 560.647C815.883 582.851 800.122 601.841 780.346 615.13C770.403 621.851 759.55 627.147 747.915 630.628C736.418 634.247 724.014 636.316 711.091 636.316C694.546 636.316 678.909 633.088 664.562 627.275C650.225 621.462 637.163 612.938 626.058 602.485C623.471 600.026 619.849 596.156 615.849 591.642C608.87 583.635 600.593 573.043 592.325 562.074C588.97 557.685 585.738 553.158 582.508 548.644C581.473 550.194 580.439 551.747 579.278 553.423C557.951 584.669 544.51 604.426 537.152 615.132C539.083 617.717 541.027 620.176 542.957 622.761C548.132 629.343 553.306 635.673 558.466 641.472C563.513 647.41 568.55 652.845 573.85 657.751C591.681 674.533 612.744 688.215 635.876 697.647C659.134 707.065 684.588 712.235 711.089 712.235C738.611 712.235 764.975 706.688 788.876 696.613C824.93 681.381 855.293 656.074 876.885 624.174C887.6 608.299 896.268 590.734 902.074 571.883C907.895 553.158 911 533.148 911 512.495C911 484.994 905.448 458.654 895.363 434.76Z" fill="white"/>
<path d="M773.87 138L250.113 886.003" stroke="white" stroke-width="75" stroke-linecap="round"/>
</svg>
